# xmcd CD database file
#
# Track frame offsets:
#	150
#	59593
#	124355
#	162873
#	206045
#
# Disc length: 3864 seconds
#
# Revision: 5
# Processed by: cddbd v1.5.2PL0 Copyright (c) Steve Scherf et al.
# Submitted via: CDex 1.51
#
DISCID=490f1605
DTITLE=e.s.t. - 1.1 Live in Hamburg
DYEAR=2007
DGENRE=Jazz
TTITLE0=Tuesday Wonderland
TTITLE1=The Rube Thing
TTITLE2=Where We Used to Live
TTITLE3=Eighthundred Streets by Feet
TTITLE4=Definition of a Dog
EXTD=YEAR: 2007
EXTT0=
EXTT1=
EXTT2=
EXTT3=
EXTT4=
PLAYORDER=
